<svg xmlns="http://www.w3.org/2000/svg" width="64" height="64" viewBox="0 0 64 64" fill="none">
  <rect width="64" height="64" rx="10" fill="#f8fbfd"/>
  <rect x="36" y="12" width="18" height="18" rx="3" fill="#ffd34f" stroke="#283043" stroke-width="3"/>
  <text x="45" y="26" text-anchor="middle" font-family="ui-monospace,Menlo,monospace" font-size="14" font-weight="900" fill="#283043">?</text>
  <ellipse cx="22" cy="28" rx="9" ry="8" fill="#7bd66f" stroke="#283043" stroke-width="3"/>
  <circle cx="19" cy="26" r="1.5" fill="#283043"/>
  <circle cx="25" cy="26" r="1.5" fill="#283043"/>
  <path d="M18 31h8" stroke="#283043" stroke-width="2" stroke-linecap="round"/>
  <path d="M14 36h16l3 16H11z" fill="#58a953" stroke="#283043" stroke-width="3" stroke-linejoin="round"/>
  <path d="M22 14c-2-4 2-7 4-3 2-4 6-1 4 3 4-2 5 3 1 4 4 2 0 6-3 3-1 4-6 4-4 0-4 3-7-1-2-4z" fill="#7bd66f" stroke="#283043" stroke-width="2"/>
</svg>
